G04*
G04 #@! TF.GenerationSoftware,Altium Limited,CircuitStudio,1.5.2 (30)*
G04*
G04 Layer_Physical_Order=1*
G04 Layer_Color=6120410*
%FSLAX24Y24*%
%MOIN*%
G70*
G01*
G75*
%ADD10C,0.0080*%
G04:AMPARAMS|DCode=11|XSize=275.6mil|YSize=118.1mil|CornerRadius=29.5mil|HoleSize=0mil|Usage=FLASHONLY|Rotation=0.000|XOffset=0mil|YOffset=0mil|HoleType=Round|Shape=RoundedRectangle|*
%AMROUNDEDRECTD11*
21,1,0.2756,0.0591,0,0,0.0*
21,1,0.2165,0.1181,0,0,0.0*
1,1,0.0591,0.1083,-0.0295*
1,1,0.0591,-0.1083,-0.0295*
1,1,0.0591,-0.1083,0.0295*
1,1,0.0591,0.1083,0.0295*
%
%ADD11ROUNDEDRECTD11*%
%ADD12C,0.1969*%
%ADD13C,0.0310*%
%ADD14R,0.0217X0.0177*%
%ADD15R,0.0118X0.0157*%
%ADD16R,0.0256X0.0157*%
%ADD17R,0.0087X0.0197*%
%ADD18R,0.0197X0.0087*%
%ADD19R,0.0197X0.0335*%
%ADD20R,0.0315X0.0118*%
%ADD21R,0.0118X0.0315*%
%ADD22R,0.0335X0.0098*%
%ADD23R,0.0551X0.0642*%
%ADD24R,0.0709X0.0315*%
%ADD25C,0.0110*%
%ADD26R,0.0177X0.0217*%
%ADD27R,0.0295X0.0110*%
%ADD28R,0.0236X0.0157*%
%ADD29R,0.0089X0.0071*%
%ADD30R,0.0071X0.0089*%
%ADD31R,0.0138X0.0079*%
%ADD32R,0.0295X0.0335*%
%ADD33R,0.0098X0.0315*%
%ADD34R,0.0630X0.0079*%
%ADD35R,0.0276X0.0197*%
%ADD36C,0.0060*%
%ADD37C,0.0095*%
%ADD38C,0.0100*%
%ADD39C,0.0150*%
%ADD40C,0.0803*%
%ADD41C,0.0100*%
%ADD42C,0.0250*%
G36*
X33620Y33966D02*
Y33728D01*
Y33572D01*
Y33545D01*
X32980D01*
Y33620D01*
X32763D01*
Y33680D01*
X32980D01*
Y33728D01*
Y33966D01*
X33028Y33970D01*
X33572D01*
X33620Y33966D01*
D02*
G37*
G36*
X38351Y33719D02*
X38381Y33699D01*
X38416Y33692D01*
X38473D01*
Y33645D01*
Y33389D01*
Y33364D01*
X38272D01*
X38237Y33357D01*
X38207Y33337D01*
X37777Y32907D01*
X37727Y32927D01*
Y33133D01*
Y33389D01*
Y33645D01*
Y33908D01*
X38162D01*
X38351Y33719D01*
D02*
G37*
G36*
X38777Y35303D02*
Y34300D01*
X38746Y34262D01*
X38113D01*
X38068Y34274D01*
X38068Y34312D01*
Y34393D01*
X37732D01*
Y34312D01*
X37732Y34274D01*
X37687Y34262D01*
X37621D01*
X37584Y34296D01*
Y34492D01*
Y34572D01*
X37357D01*
Y34632D01*
X37584D01*
Y34689D01*
Y34886D01*
Y34904D01*
X37644D01*
X37732Y34816D01*
Y34629D01*
X38068D01*
Y34926D01*
X37881D01*
X37747Y35060D01*
X37717Y35080D01*
X37682Y35087D01*
X37584D01*
Y35104D01*
X37130D01*
Y35081D01*
X36830D01*
Y34700D01*
X36770D01*
Y35081D01*
X36470D01*
Y35104D01*
X36016D01*
Y35087D01*
X35468D01*
X35424Y35122D01*
D01*
X35422Y35125D01*
X35383Y35183D01*
X35322Y35224D01*
X35250Y35239D01*
X35178Y35224D01*
X35117Y35183D01*
X35076Y35122D01*
X35061Y35050D01*
X35076Y34978D01*
X35079Y34973D01*
X35082Y34926D01*
X35082D01*
X35082Y34926D01*
Y34849D01*
X34998D01*
Y34916D01*
X34602D01*
Y34599D01*
Y34473D01*
X34800D01*
X34998D01*
Y34599D01*
Y34666D01*
X35082D01*
Y34629D01*
X35418D01*
Y34816D01*
X35482Y34879D01*
X35532Y34858D01*
Y34807D01*
X35700D01*
Y34777D01*
X35730D01*
Y34629D01*
X35787D01*
X35817Y34579D01*
X35814Y34571D01*
X35532D01*
Y34274D01*
X35588D01*
Y34176D01*
X35532D01*
Y34018D01*
X35464Y33950D01*
X35418Y33969D01*
Y33997D01*
X35280D01*
Y33869D01*
X35302Y33829D01*
X35297Y33821D01*
X35082D01*
Y33524D01*
X35143D01*
X35146Y33507D01*
X35171Y33471D01*
X35213Y33429D01*
X35193Y33383D01*
X35126D01*
X34964Y33544D01*
Y33832D01*
X34964Y33832D01*
X34966Y33882D01*
X34976D01*
Y34020D01*
X34827D01*
X34679D01*
Y33882D01*
X34679Y33882D01*
X34677Y33832D01*
X34623D01*
X34621Y33882D01*
X34621Y33882D01*
X34621Y33882D01*
Y34218D01*
X34484D01*
X34450Y34252D01*
X34421Y34272D01*
X34385Y34279D01*
X33813D01*
Y34405D01*
X33143D01*
X33141Y34411D01*
X33140Y34417D01*
X33120Y34447D01*
X32952Y34615D01*
X32923Y34635D01*
X32888Y34642D01*
X32761D01*
X32733Y34683D01*
X32672Y34724D01*
X32600Y34739D01*
X32528Y34724D01*
X32468Y34684D01*
X32458Y34686D01*
X32418Y34701D01*
Y34726D01*
X32082D01*
Y34429D01*
X32418D01*
X32418Y34429D01*
Y34429D01*
D01*
X32466Y34418D01*
X32467Y34417D01*
X32528Y34376D01*
X32600Y34361D01*
X32672Y34376D01*
X32733Y34417D01*
X32759Y34455D01*
X32808D01*
X32808Y34455D01*
X32787Y34405D01*
X32787D01*
Y34217D01*
X32906D01*
Y34157D01*
X32787D01*
Y33970D01*
X32739Y33966D01*
X32545D01*
Y33906D01*
X32464Y33825D01*
X32418Y33845D01*
Y33976D01*
X32082D01*
Y33919D01*
X31968D01*
Y33976D01*
X31892D01*
Y34074D01*
X31968D01*
Y34131D01*
X32082D01*
Y34074D01*
X32418D01*
Y34371D01*
X32082D01*
Y34315D01*
X31968D01*
Y34371D01*
X31657D01*
Y34429D01*
X31770D01*
Y34577D01*
Y34726D01*
X31647D01*
X31630Y34751D01*
X31594Y34787D01*
X31603Y34849D01*
X31777Y35023D01*
X31951D01*
X32039Y34935D01*
X32069Y34915D01*
X32104Y34908D01*
X33189D01*
X33217Y34867D01*
X33278Y34826D01*
X33350Y34811D01*
X33422Y34826D01*
X33483Y34867D01*
X33524Y34928D01*
X33539Y35000D01*
X33524Y35072D01*
X33483Y35133D01*
X33422Y35174D01*
X33350Y35189D01*
X33278Y35174D01*
X33217Y35133D01*
X33189Y35092D01*
X32142D01*
X32054Y35180D01*
X32024Y35200D01*
X31989Y35207D01*
X31739D01*
X31703Y35200D01*
X31674Y35180D01*
X31486Y34992D01*
X29692D01*
X29504Y35180D01*
X29474Y35200D01*
X29439Y35207D01*
X29261D01*
X29226Y35200D01*
X29196Y35180D01*
X29070Y35054D01*
X29050Y35024D01*
X28996Y35008D01*
X28972Y35024D01*
X28900Y35039D01*
X28828Y35024D01*
X28767Y34983D01*
X28726Y34922D01*
X28711Y34850D01*
X28726Y34778D01*
X28734Y34765D01*
X28711Y34721D01*
X28655D01*
X28655Y34721D01*
Y34721D01*
X28655Y34721D01*
X28609Y34731D01*
Y35106D01*
X28629Y35121D01*
X28703Y35217D01*
X28750Y35329D01*
X28751Y35341D01*
X38746D01*
X38777Y35303D01*
D02*
G37*
G36*
X23200Y35341D02*
X27849D01*
X27850Y35329D01*
X27897Y35217D01*
X27971Y35121D01*
X28067Y35047D01*
X28180Y35000D01*
X28300Y34984D01*
X28353Y34991D01*
X28391Y34958D01*
Y34543D01*
X28399Y34501D01*
X28423Y34465D01*
X28445Y34443D01*
Y34398D01*
Y34366D01*
X28549D01*
Y34306D01*
X28445D01*
Y34306D01*
X28395Y34285D01*
X28315Y34365D01*
X28285Y34385D01*
X28273Y34387D01*
Y34536D01*
X28065D01*
Y34566D01*
X28035D01*
Y34793D01*
X27444D01*
Y34633D01*
X27394Y34618D01*
X27383Y34633D01*
X27322Y34674D01*
X27250Y34689D01*
X27178Y34674D01*
X27117Y34633D01*
X27094Y34600D01*
X26803D01*
Y34714D01*
X26792D01*
Y34854D01*
X26785Y34889D01*
X26765Y34919D01*
X26604Y35080D01*
X26574Y35100D01*
X26539Y35107D01*
X26361D01*
X26326Y35100D01*
X26296Y35080D01*
X25835Y34619D01*
X25827Y34607D01*
X25774Y34602D01*
X25769Y34604D01*
X25751Y34631D01*
X25684Y34676D01*
D01*
X25680Y34679D01*
X25680Y34679D01*
X25680Y34679D01*
X25680Y34680D01*
X25689Y34725D01*
X25690Y34726D01*
X25690Y34727D01*
X25690Y34727D01*
X25695Y34726D01*
X25695D01*
X25746Y34716D01*
X25845Y34736D01*
X25930Y34793D01*
X25986Y34877D01*
X26006Y34976D01*
X25986Y35076D01*
X25930Y35160D01*
X25845Y35217D01*
X25746Y35236D01*
X25646Y35217D01*
X25562Y35160D01*
X25505Y35076D01*
X25486Y34976D01*
X25505Y34877D01*
X25562Y34793D01*
X25642Y34739D01*
X25642D01*
X25646Y34736D01*
X25646Y34736D01*
X25646Y34736D01*
X25646Y34735D01*
X25636Y34690D01*
X25636Y34689D01*
X25636Y34688D01*
X25636Y34688D01*
X25631Y34689D01*
X25631D01*
X25626Y34690D01*
Y34476D01*
Y34263D01*
X25680Y34274D01*
X25751Y34321D01*
X25758Y34333D01*
X25808Y34318D01*
Y34135D01*
X25758Y34120D01*
X25751Y34131D01*
X25680Y34179D01*
X25596Y34196D01*
X25512Y34179D01*
X25441Y34131D01*
X25393Y34060D01*
X25376Y33976D01*
X25393Y33892D01*
X25441Y33821D01*
X25512Y33774D01*
X25596Y33757D01*
X25620Y33762D01*
X25662Y33727D01*
X25619Y33691D01*
X25596Y33696D01*
X25512Y33679D01*
X25441Y33631D01*
X25393Y33560D01*
X25376Y33476D01*
X25393Y33392D01*
X25441Y33321D01*
X25512Y33274D01*
X25596Y33257D01*
X25653Y33269D01*
X25686Y33246D01*
X25699Y33232D01*
X25700Y33231D01*
X25713Y33166D01*
X25754Y33105D01*
X25815Y33064D01*
X25887Y33050D01*
X25959Y33064D01*
X26020Y33105D01*
X26061Y33166D01*
X26076Y33238D01*
X26066Y33287D01*
X26215Y33436D01*
X26235Y33466D01*
X26242Y33501D01*
Y33771D01*
X26236Y33801D01*
X26235Y33806D01*
X26215Y33836D01*
X26184Y33867D01*
X26200Y33921D01*
X26222Y33926D01*
X26283Y33967D01*
X26306Y34000D01*
X26597D01*
Y33886D01*
X26670D01*
Y34044D01*
X26730D01*
Y33886D01*
X26803D01*
Y34000D01*
X27114D01*
X27114Y34000D01*
Y34000D01*
X27114Y34000D01*
X27159Y33988D01*
X27178Y33976D01*
X27250Y33961D01*
X27322Y33976D01*
X27383Y34017D01*
X27394Y34032D01*
X27444Y34017D01*
Y33807D01*
X27622D01*
Y34034D01*
X27682D01*
Y33807D01*
X28142D01*
X28164Y33758D01*
X28144Y33732D01*
X27444D01*
Y33669D01*
X27368D01*
Y33726D01*
X27032D01*
Y33429D01*
X27368D01*
Y33485D01*
X27444D01*
Y33297D01*
X28202D01*
X28222Y33251D01*
X28073Y33103D01*
X27444D01*
Y32668D01*
X28273D01*
Y33043D01*
X28389Y33159D01*
X28443Y33142D01*
X28446Y33128D01*
X28487Y33067D01*
X28548Y33026D01*
X28620Y33011D01*
X28692Y33026D01*
X28753Y33067D01*
X28760Y33077D01*
X28810D01*
X28817Y33067D01*
X28878Y33026D01*
X28950Y33011D01*
X29022Y33026D01*
X29083Y33067D01*
X29124Y33128D01*
X29139Y33200D01*
X29134Y33222D01*
X29180Y33248D01*
X29183Y33246D01*
X29228Y33216D01*
X29300Y33201D01*
X29372Y33216D01*
X29433Y33257D01*
X29474Y33318D01*
X29477Y33331D01*
X29525Y33345D01*
X29554Y33316D01*
X29584Y33296D01*
X29619Y33289D01*
X29646D01*
Y33164D01*
X29663D01*
Y33018D01*
X29670Y32983D01*
X29690Y32953D01*
X29724Y32919D01*
Y32732D01*
X30021D01*
Y33068D01*
X29846D01*
Y33164D01*
X30315D01*
Y33381D01*
X30345D01*
Y33411D01*
X30454D01*
Y33538D01*
X30842D01*
X30869Y33511D01*
X30876Y33478D01*
X30917Y33417D01*
X30931Y33407D01*
X30936Y33346D01*
X30582Y32992D01*
X30376D01*
Y33068D01*
X30079D01*
Y32732D01*
X30376D01*
Y32808D01*
X30620D01*
X30655Y32815D01*
X30685Y32835D01*
X31115Y33265D01*
X31135Y33295D01*
X31137Y33307D01*
X31182Y33324D01*
X31182D01*
X31182Y33324D01*
X31182Y33324D01*
X31320D01*
Y33473D01*
X31350D01*
Y33503D01*
X31518D01*
Y33621D01*
X31346D01*
X31319Y33671D01*
X31324Y33679D01*
X31518D01*
Y33735D01*
X31632D01*
Y33679D01*
X31968D01*
Y33735D01*
X32082D01*
Y33679D01*
X32200D01*
X32227Y33629D01*
X32222Y33621D01*
X32082D01*
Y33433D01*
X32065Y33408D01*
X32058Y33373D01*
Y33261D01*
X32017Y33233D01*
X31976Y33172D01*
X31961Y33100D01*
X31976Y33028D01*
X32017Y32967D01*
X32078Y32926D01*
X32150Y32911D01*
X32222Y32926D01*
X32283Y32967D01*
X32324Y33028D01*
X32339Y33100D01*
X32324Y33172D01*
X32283Y33233D01*
X32242Y33261D01*
Y33324D01*
X32418D01*
Y33520D01*
X32499Y33600D01*
X32545Y33581D01*
Y33531D01*
Y33334D01*
X32622D01*
X32627Y33284D01*
X32578Y33274D01*
X32517Y33233D01*
X32476Y33172D01*
X32461Y33100D01*
X32476Y33028D01*
X32517Y32967D01*
X32578Y32926D01*
X32650Y32911D01*
X32722Y32926D01*
X32737Y32936D01*
X32787Y32909D01*
Y32895D01*
X33073D01*
Y33113D01*
X33133D01*
Y32895D01*
X33467D01*
Y33113D01*
X33527D01*
Y32895D01*
X33813D01*
X33813Y32895D01*
Y32895D01*
D01*
X33858Y32880D01*
X33867Y32867D01*
X33928Y32826D01*
X34000Y32811D01*
X34072Y32826D01*
X34086Y32835D01*
X34136Y32808D01*
Y32768D01*
X34964D01*
Y32831D01*
X34985Y32873D01*
X35028Y32881D01*
X35064Y32906D01*
X35146Y32988D01*
X35247D01*
X35269Y32960D01*
X35402D01*
Y32930D01*
X35432D01*
Y32818D01*
X35446Y32821D01*
X35485Y32847D01*
X35515D01*
X35554Y32821D01*
X35598Y32812D01*
X35643Y32821D01*
X35681Y32847D01*
X35696Y32869D01*
X35779Y32952D01*
X35779Y32952D01*
X35804Y32988D01*
X35812Y33031D01*
X35812Y33031D01*
Y33200D01*
X35804Y33243D01*
X35779Y33279D01*
X35779Y33279D01*
X35711Y33348D01*
Y33352D01*
X35711Y33352D01*
X35702Y33394D01*
X35678Y33431D01*
X35631Y33478D01*
X35650Y33524D01*
X35868D01*
Y33581D01*
X35982D01*
Y33524D01*
X36169D01*
X36221Y33472D01*
X36202Y33426D01*
X35982D01*
Y33129D01*
X36135D01*
X36145Y33112D01*
X36124Y33071D01*
X35982D01*
Y32953D01*
X36150D01*
X36318D01*
Y33061D01*
X36318Y33071D01*
X36342Y33111D01*
X36416D01*
Y33088D01*
X36831D01*
Y33088D01*
X36869D01*
Y33088D01*
X37120D01*
X37139Y33042D01*
X37066Y32968D01*
X36879D01*
Y32678D01*
X36848Y32660D01*
X36821Y32678D01*
Y32770D01*
X36673D01*
X36524D01*
Y32662D01*
X36524Y32632D01*
X36482Y32612D01*
X36482D01*
X23200D01*
X23198Y32612D01*
X23022Y32626D01*
X22848Y32667D01*
X22683Y32736D01*
X22531Y32829D01*
X22395Y32945D01*
X22279Y33081D01*
X22186Y33233D01*
X22117Y33398D01*
X22076Y33572D01*
X22062Y33748D01*
X22062Y33750D01*
Y34203D01*
X22062Y34205D01*
X22076Y34381D01*
X22117Y34555D01*
X22186Y34720D01*
X22279Y34872D01*
X22395Y35008D01*
X22531Y35124D01*
X22683Y35217D01*
X22848Y35286D01*
X23022Y35327D01*
X23198Y35341D01*
X23200Y35341D01*
D02*
G37*
G36*
X38473Y33133D02*
Y33046D01*
X38651D01*
Y33016D01*
X38681D01*
Y32877D01*
X38777D01*
Y32650D01*
X38746Y32612D01*
X37218D01*
X37176Y32632D01*
Y32708D01*
X37800D01*
X37835Y32715D01*
X37865Y32735D01*
X38310Y33180D01*
X38473D01*
Y33133D01*
D02*
G37*
%LPC*%
G36*
X31770Y33443D02*
X31632D01*
Y33324D01*
X31770D01*
Y33443D01*
D02*
G37*
G36*
X31518D02*
X31380D01*
Y33324D01*
X31518D01*
Y33443D01*
D02*
G37*
G36*
X27170Y33371D02*
X27032D01*
Y33253D01*
X27170D01*
Y33371D01*
D02*
G37*
G36*
X27368D02*
X27230D01*
Y33253D01*
X27368D01*
Y33371D01*
D02*
G37*
G36*
X31968Y33621D02*
X31830D01*
Y33503D01*
X31968D01*
Y33621D01*
D02*
G37*
G36*
X24233Y33948D02*
X24095D01*
Y33829D01*
X24233D01*
Y33948D01*
D02*
G37*
G36*
X24431D02*
X24293D01*
Y33829D01*
X24431D01*
Y33948D01*
D02*
G37*
G36*
X31968Y33443D02*
X31830D01*
Y33324D01*
X31968D01*
Y33443D01*
D02*
G37*
G36*
X23701Y33554D02*
X23611D01*
Y33445D01*
X23701D01*
Y33554D01*
D02*
G37*
G36*
X31770Y33621D02*
X31632D01*
Y33503D01*
X31770D01*
Y33621D01*
D02*
G37*
G36*
X30454Y33351D02*
X30375D01*
Y33164D01*
X30454D01*
Y33351D01*
D02*
G37*
G36*
X35372Y32900D02*
X35290D01*
X35293Y32885D01*
X35319Y32847D01*
X35357Y32821D01*
X35372Y32818D01*
Y32900D01*
D02*
G37*
G36*
X36643Y32968D02*
X36524D01*
Y32830D01*
X36643D01*
Y32968D01*
D02*
G37*
G36*
X36318Y32893D02*
X36180D01*
Y32774D01*
X36318D01*
Y32893D01*
D02*
G37*
G36*
X25346Y33236D02*
X25246Y33217D01*
X25162Y33160D01*
X25105Y33076D01*
X25086Y32976D01*
X25105Y32877D01*
X25162Y32793D01*
X25246Y32736D01*
X25346Y32716D01*
X25445Y32736D01*
X25530Y32793D01*
X25586Y32877D01*
X25606Y32976D01*
X25586Y33076D01*
X25530Y33160D01*
X25445Y33217D01*
X25346Y33236D01*
D02*
G37*
G36*
X36120Y32893D02*
X35982D01*
Y32774D01*
X36120D01*
Y32893D01*
D02*
G37*
G36*
X36821Y32968D02*
X36703D01*
Y32830D01*
X36821D01*
Y32968D01*
D02*
G37*
G36*
X27368Y33193D02*
X27230D01*
Y33074D01*
X27368D01*
Y33193D01*
D02*
G37*
G36*
X24233Y33259D02*
X24095D01*
Y33140D01*
X24233D01*
Y33259D01*
D02*
G37*
G36*
X27170Y33193D02*
X27032D01*
Y33074D01*
X27170D01*
Y33193D01*
D02*
G37*
G36*
X38621Y32986D02*
X38473D01*
Y32877D01*
X38621D01*
Y32986D01*
D02*
G37*
G36*
X24233Y33080D02*
X24095D01*
Y32962D01*
X24233D01*
Y33080D01*
D02*
G37*
G36*
X35220Y33997D02*
X35082D01*
Y33879D01*
X35220D01*
Y33997D01*
D02*
G37*
G36*
X35418Y34571D02*
X35280D01*
Y34453D01*
X35418D01*
Y34571D01*
D02*
G37*
G36*
X25566Y34690D02*
X25512Y34679D01*
X25441Y34631D01*
X25393Y34560D01*
X25382Y34506D01*
X25566D01*
Y34690D01*
D02*
G37*
G36*
X24233Y34637D02*
X24095D01*
Y34518D01*
X24233D01*
Y34637D01*
D02*
G37*
G36*
X37870Y34571D02*
X37732D01*
Y34453D01*
X37870D01*
Y34571D01*
D02*
G37*
G36*
X38068D02*
X37930D01*
Y34453D01*
X38068D01*
Y34571D01*
D02*
G37*
G36*
X35220Y34571D02*
X35082D01*
Y34453D01*
X35220D01*
Y34571D01*
D02*
G37*
G36*
X35670Y34747D02*
X35532D01*
Y34629D01*
X35670D01*
Y34747D01*
D02*
G37*
G36*
X23701Y34932D02*
X23611D01*
Y34823D01*
X23701D01*
Y34932D01*
D02*
G37*
G36*
X24946Y35236D02*
X24846Y35217D01*
X24762Y35160D01*
X24705Y35076D01*
X24700Y35049D01*
X24647Y35038D01*
X24623Y35073D01*
X24562Y35114D01*
X24490Y35129D01*
X24418Y35114D01*
X24357Y35073D01*
X24316Y35012D01*
X24312Y34991D01*
X24095D01*
Y34885D01*
X24029D01*
Y34932D01*
X23761D01*
Y34793D01*
X23731D01*
Y34763D01*
X23611D01*
Y34655D01*
X23593Y34643D01*
X23545Y34637D01*
X23545Y34637D01*
X23545Y34637D01*
X23209D01*
Y34352D01*
X23209Y34340D01*
Y34321D01*
Y34302D01*
X23209Y34295D01*
X23195Y34245D01*
X23024D01*
Y34548D01*
X22895D01*
X22876Y34594D01*
X23032Y34751D01*
X23209D01*
Y34694D01*
X23545D01*
Y34991D01*
X23209D01*
Y34934D01*
X22994D01*
X22965Y34928D01*
X22959Y34927D01*
X22929Y34907D01*
X22570Y34548D01*
X22353D01*
Y34094D01*
X22657D01*
X22669Y34094D01*
X22669Y34094D01*
X22707D01*
Y34094D01*
X22707Y34094D01*
X22877D01*
X22882Y34089D01*
X22911Y34069D01*
X22946Y34062D01*
X23209D01*
Y34005D01*
X23545D01*
Y34290D01*
X23545Y34302D01*
Y34321D01*
Y34340D01*
X23545Y34352D01*
Y34446D01*
X23632D01*
Y34399D01*
X24008D01*
Y34655D01*
X24029D01*
Y34702D01*
X24095D01*
Y34694D01*
X24431D01*
Y34712D01*
X24481Y34753D01*
X24490Y34751D01*
X24562Y34766D01*
X24623Y34807D01*
X24660Y34862D01*
X24666Y34864D01*
X24688Y34866D01*
X24714Y34864D01*
X24762Y34793D01*
X24846Y34736D01*
X24946Y34716D01*
X24996Y34726D01*
X24996D01*
X25001Y34727D01*
X25001Y34727D01*
X25002Y34726D01*
X25002Y34725D01*
X25011Y34680D01*
X25012Y34679D01*
X25011Y34679D01*
X25008Y34676D01*
X25008D01*
X24941Y34631D01*
X24893Y34560D01*
X24876Y34476D01*
X24893Y34392D01*
X24941Y34321D01*
X25012Y34274D01*
X25096Y34257D01*
X25180Y34274D01*
X25251Y34321D01*
X25298Y34392D01*
X25315Y34476D01*
X25298Y34560D01*
X25251Y34631D01*
X25180Y34679D01*
X25096Y34696D01*
X25060Y34689D01*
X25060D01*
X25056Y34688D01*
X25056Y34688D01*
X25055Y34689D01*
X25055Y34690D01*
X25045Y34735D01*
X25045Y34736D01*
X25046Y34736D01*
X25049Y34739D01*
X25049D01*
X25130Y34793D01*
X25186Y34877D01*
X25206Y34976D01*
X25186Y35076D01*
X25130Y35160D01*
X25045Y35217D01*
X24946Y35236D01*
D02*
G37*
G36*
X24431Y34637D02*
X24293D01*
Y34518D01*
X24431D01*
Y34637D01*
D02*
G37*
G36*
X28273Y34793D02*
X28095D01*
Y34596D01*
X28273D01*
Y34793D01*
D02*
G37*
G36*
X31968Y34726D02*
X31830D01*
Y34607D01*
X31968D01*
Y34726D01*
D02*
G37*
G36*
Y34547D02*
X31830D01*
Y34429D01*
X31968D01*
Y34547D01*
D02*
G37*
G36*
X34797Y34218D02*
X34679D01*
Y34080D01*
X34797D01*
Y34218D01*
D02*
G37*
G36*
X34976D02*
X34857D01*
Y34080D01*
X34976D01*
Y34218D01*
D02*
G37*
G36*
X23701Y34243D02*
X23611D01*
Y34134D01*
X23701D01*
Y34243D01*
D02*
G37*
G36*
X25096Y34196D02*
X25012Y34179D01*
X24941Y34131D01*
X24893Y34060D01*
X24876Y33976D01*
X24883Y33945D01*
X24848Y33910D01*
X24804Y33919D01*
X24732Y33905D01*
X24671Y33864D01*
X24630Y33802D01*
X24616Y33730D01*
X24616Y33726D01*
X24574Y33684D01*
X24550Y33689D01*
X24481Y33675D01*
X24476Y33675D01*
X24431Y33703D01*
Y33769D01*
X24263D01*
X24095D01*
Y33663D01*
X24095Y33651D01*
Y33632D01*
Y33613D01*
X24095Y33601D01*
Y33507D01*
X24029D01*
Y33554D01*
X23761D01*
Y33415D01*
X23731D01*
Y33385D01*
X23611D01*
Y33277D01*
X23593Y33265D01*
X23545Y33259D01*
X23545Y33259D01*
X23545Y33259D01*
X23209D01*
Y32962D01*
X23545D01*
Y33068D01*
X23632D01*
Y33021D01*
X24008D01*
Y33277D01*
X24029D01*
Y33324D01*
X24095D01*
Y33316D01*
X24421D01*
X24430Y33298D01*
X24429Y33293D01*
X24400Y33259D01*
X24293D01*
Y33110D01*
Y32962D01*
X24431D01*
Y32986D01*
X24481Y33007D01*
X24528Y32976D01*
X24600Y32961D01*
X24672Y32976D01*
X24733Y33017D01*
X24774Y33078D01*
X24775Y33081D01*
X24781Y33085D01*
X24987Y33291D01*
X25012Y33274D01*
X25096Y33257D01*
X25180Y33274D01*
X25251Y33321D01*
X25298Y33392D01*
X25315Y33476D01*
X25298Y33560D01*
X25251Y33631D01*
X25180Y33679D01*
X25096Y33696D01*
X25073Y33691D01*
X25029Y33727D01*
X25072Y33762D01*
X25096Y33757D01*
X25180Y33774D01*
X25251Y33821D01*
X25298Y33892D01*
X25315Y33976D01*
X25298Y34060D01*
X25251Y34131D01*
X25180Y34179D01*
X25096Y34196D01*
D02*
G37*
G36*
X35220Y34176D02*
X35082D01*
Y34057D01*
X35220D01*
Y34176D01*
D02*
G37*
G36*
X35418D02*
X35280D01*
Y34057D01*
X35418D01*
Y34176D01*
D02*
G37*
G36*
Y34393D02*
X35280D01*
Y34274D01*
X35418D01*
Y34393D01*
D02*
G37*
G36*
X34770Y34413D02*
X34602D01*
Y34284D01*
X34770D01*
Y34413D01*
D02*
G37*
G36*
X34998D02*
X34830D01*
Y34284D01*
X34998D01*
Y34413D01*
D02*
G37*
G36*
X24431Y34458D02*
X24263D01*
X24095D01*
Y34340D01*
X24095Y34340D01*
Y34340D01*
Y34302D01*
X24095D01*
X24095Y34290D01*
Y34196D01*
X24029D01*
Y34243D01*
X23761D01*
Y34104D01*
X23731D01*
Y34074D01*
X23611D01*
Y33966D01*
X23593Y33954D01*
X23545Y33948D01*
X23545Y33948D01*
X23545Y33948D01*
X23209D01*
Y33663D01*
X23209Y33651D01*
Y33632D01*
Y33613D01*
X23209Y33606D01*
X23195Y33556D01*
X23024D01*
Y33859D01*
X22707D01*
X22707Y33859D01*
X22707D01*
X22669D01*
Y33859D01*
X22657Y33859D01*
X22353D01*
Y33405D01*
X22406D01*
X22407Y33396D01*
X22432Y33360D01*
X22466Y33325D01*
X22461Y33300D01*
X22476Y33228D01*
X22517Y33167D01*
X22578Y33126D01*
X22650Y33111D01*
X22722Y33126D01*
X22783Y33167D01*
X22824Y33228D01*
X22839Y33300D01*
X22834Y33322D01*
X22870Y33374D01*
X22900Y33380D01*
X22906Y33379D01*
X22935Y33373D01*
X23209D01*
Y33316D01*
X23545D01*
Y33601D01*
X23545Y33613D01*
Y33632D01*
Y33651D01*
X23545Y33663D01*
Y33757D01*
X23632D01*
Y33710D01*
X24008D01*
Y33966D01*
X24029D01*
Y34013D01*
X24095D01*
Y34005D01*
X24431D01*
X24431Y34005D01*
X24431Y34005D01*
X24431Y34005D01*
X24473Y34025D01*
X24481Y34025D01*
X24550Y34011D01*
X24622Y34026D01*
X24683Y34067D01*
X24724Y34128D01*
X24739Y34200D01*
X24724Y34272D01*
X24683Y34333D01*
X24622Y34374D01*
X24550Y34389D01*
X24481Y34375D01*
X24470Y34375D01*
X24431Y34396D01*
Y34458D01*
D02*
G37*
G36*
X25566Y34446D02*
X25382D01*
X25393Y34392D01*
X25441Y34321D01*
X25512Y34274D01*
X25566Y34263D01*
Y34446D01*
D02*
G37*
G36*
X35220Y34393D02*
X35082D01*
Y34274D01*
X35220D01*
Y34393D01*
D02*
G37*
%LPD*%
D10*
X48670Y34203D02*
G03*
X47570Y35303I-1100J0D01*
G01*
X43704Y34272D02*
G03*
X43308Y34667I-395J0D01*
G01*
Y33286D02*
G03*
X43704Y33681I0J395D01*
G01*
X47570Y32650D02*
G03*
X48670Y33750I0J1100D01*
G01*
X43061Y34667D02*
G03*
X41390Y34667I-836J-691D01*
G01*
X41143D02*
G03*
X40749Y34300I0J-395D01*
G01*
X41390Y33286D02*
G03*
X43061Y33286I836J691D01*
G01*
X40748Y33681D02*
G03*
X41143Y33286I395J0D01*
G01*
X48670Y33750D02*
Y34203D01*
X48600Y33364D02*
Y34589D01*
X48400Y33028D02*
Y34925D01*
X42931Y34800D02*
X48494D01*
X42583Y35000D02*
X48328D01*
X43682Y34400D02*
X48652D01*
X43528Y34600D02*
X48596D01*
X43704Y34000D02*
X48670D01*
X43704Y34200D02*
X48670D01*
X43704Y33800D02*
X48670D01*
X43695Y33600D02*
X48660D01*
X43586Y33400D02*
X48613D01*
X42982Y33200D02*
X48523D01*
X42697Y33000D02*
X48375D01*
X43400Y34656D02*
Y35303D01*
X43200Y34667D02*
Y35303D01*
X47800Y32674D02*
Y35278D01*
X43600Y34538D02*
Y35303D01*
X42600Y34994D02*
Y35303D01*
X42400Y35047D02*
Y35303D01*
X43000Y34735D02*
Y35303D01*
X42800Y34896D02*
Y35303D01*
X43704Y33681D02*
Y34272D01*
X48200Y32848D02*
Y35105D01*
X48000Y32737D02*
Y35215D01*
X43061Y33286D02*
X43308D01*
X43061Y34667D02*
X43308D01*
X46000Y32650D02*
Y35303D01*
X45800Y32650D02*
Y35303D01*
X46400Y32650D02*
Y35303D01*
X46200Y32650D02*
Y35303D01*
X45200Y32650D02*
Y35303D01*
X45000Y32650D02*
Y35303D01*
X45600Y32650D02*
Y35303D01*
X45400Y32650D02*
Y35303D01*
X47600Y32650D02*
Y35302D01*
X47400Y32650D02*
Y35303D01*
X47200Y32650D02*
Y35303D01*
X46800Y32650D02*
Y35303D01*
X46600Y32650D02*
Y35303D01*
X47000Y32650D02*
Y35303D01*
X44400Y32650D02*
Y35303D01*
X44200Y32650D02*
Y35303D01*
X44800Y32650D02*
Y35303D01*
X44600Y32650D02*
Y35303D01*
X43800Y32650D02*
Y35303D01*
X43600Y32650D02*
Y33414D01*
X44000Y32650D02*
Y35303D01*
X43000Y32650D02*
Y33217D01*
X42800Y32650D02*
Y33057D01*
X43400Y32650D02*
Y33297D01*
X43200Y32650D02*
Y33286D01*
X42400Y32650D02*
Y32906D01*
X42200Y32650D02*
Y32892D01*
X42600Y32650D02*
Y32959D01*
X42200Y35060D02*
Y35303D01*
X42000Y35037D02*
Y35303D01*
X41800Y34974D02*
Y35303D01*
X41600Y34862D02*
Y35303D01*
X38879D02*
X47570D01*
X41400Y34679D02*
Y35303D01*
X41200Y34667D02*
Y35303D01*
X41000Y34640D02*
Y35303D01*
X38879Y35200D02*
X48034D01*
X41143Y34667D02*
X41390D01*
X38879Y35000D02*
X41868D01*
X38879Y34800D02*
X41520D01*
X38879Y34600D02*
X40923D01*
X40800Y34468D02*
Y35303D01*
X40600Y34300D02*
Y35303D01*
X40400Y34300D02*
Y35303D01*
X40200Y34300D02*
Y35303D01*
X39800Y34300D02*
Y35303D01*
X39000Y34300D02*
Y35303D01*
X40000Y34300D02*
Y35303D01*
X39200Y34300D02*
Y35303D01*
X38879Y34300D02*
Y35303D01*
X39600Y34300D02*
Y35303D01*
X39400Y34300D02*
Y35303D01*
X38879Y34400D02*
X40769D01*
X38879Y34300D02*
X40749D01*
X38879Y34000D02*
X40748D01*
X41143Y33286D02*
X41390D01*
X41400Y32650D02*
Y33274D01*
X41200Y32650D02*
Y33286D01*
X38879Y33400D02*
X40865D01*
X41000Y32650D02*
Y33313D01*
X40800Y32650D02*
Y33484D01*
X41600Y32650D02*
Y33091D01*
X38879Y33200D02*
X41469D01*
X42000Y32650D02*
Y32916D01*
X41800Y32650D02*
Y32979D01*
X38879Y32800D02*
X48125D01*
X38879Y33000D02*
X41754D01*
X38879Y32650D02*
X47570D01*
X39600D02*
Y34000D01*
X39400Y32650D02*
Y34000D01*
X40000Y32650D02*
Y34000D01*
X39800Y32650D02*
Y34000D01*
X39000Y32650D02*
Y34000D01*
X38879Y32650D02*
Y34000D01*
X39200Y32650D02*
Y34000D01*
X40748Y33681D02*
Y34000D01*
X40600Y32650D02*
Y34000D01*
X40400Y32650D02*
Y34000D01*
X40200Y32650D02*
Y34000D01*
X38879Y33800D02*
X40748D01*
X38879Y34000D02*
X40748D01*
X38879Y33600D02*
X40756D01*
D11*
X42226Y33976D02*
D03*
D12*
D03*
D13*
X25096Y34476D02*
D03*
X25596D02*
D03*
X25096Y33976D02*
D03*
X25596D02*
D03*
X25096Y33476D02*
D03*
X25596D02*
D03*
D14*
X23377Y33110D02*
D03*
Y33465D02*
D03*
Y33799D02*
D03*
Y34154D02*
D03*
Y34488D02*
D03*
Y34843D02*
D03*
X24263Y33110D02*
D03*
Y33465D02*
D03*
Y33799D02*
D03*
Y34154D02*
D03*
Y34488D02*
D03*
Y34843D02*
D03*
X31800Y34223D02*
D03*
Y34577D02*
D03*
Y33827D02*
D03*
Y33473D02*
D03*
X35700Y34423D02*
D03*
Y34777D02*
D03*
X35250Y34777D02*
D03*
Y34423D02*
D03*
X37900Y34423D02*
D03*
Y34777D02*
D03*
X35250Y33673D02*
D03*
Y34027D02*
D03*
X35700Y33673D02*
D03*
Y34027D02*
D03*
X36150Y33277D02*
D03*
Y32923D02*
D03*
Y33673D02*
D03*
Y34027D02*
D03*
X31350Y34223D02*
D03*
Y34577D02*
D03*
X27200Y33577D02*
D03*
Y33223D02*
D03*
X31350Y33827D02*
D03*
Y33473D02*
D03*
X32250Y33827D02*
D03*
Y33473D02*
D03*
Y34223D02*
D03*
Y34577D02*
D03*
D15*
X23910Y33415D02*
D03*
X23731D02*
D03*
X23910Y34104D02*
D03*
X23731D02*
D03*
X23910Y34793D02*
D03*
X23731D02*
D03*
X30760Y34578D02*
D03*
X30940D02*
D03*
D16*
X23820Y33159D02*
D03*
Y33848D02*
D03*
Y34537D02*
D03*
X30850Y34322D02*
D03*
D17*
X26700Y34556D02*
D03*
Y34044D02*
D03*
D18*
X26444Y34300D02*
D03*
Y34497D02*
D03*
X26956Y34103D02*
D03*
Y34300D02*
D03*
Y34497D02*
D03*
X26444Y34103D02*
D03*
D19*
X22511Y33632D02*
D03*
X22865Y34321D02*
D03*
Y33632D02*
D03*
X22511Y34321D02*
D03*
D20*
X32763Y33847D02*
D03*
Y33650D02*
D03*
Y33453D02*
D03*
X33837D02*
D03*
Y33650D02*
D03*
Y33847D02*
D03*
D21*
X32906Y33113D02*
D03*
X33103D02*
D03*
X33300D02*
D03*
X33497D02*
D03*
X33694D02*
D03*
Y34187D02*
D03*
X33497D02*
D03*
X33300D02*
D03*
X33103D02*
D03*
X32906D02*
D03*
D22*
X36243Y34995D02*
D03*
Y34798D02*
D03*
Y34602D02*
D03*
Y34405D02*
D03*
X37357Y34995D02*
D03*
Y34798D02*
D03*
Y34602D02*
D03*
Y34405D02*
D03*
D23*
X36800Y34700D02*
D03*
D24*
X34550Y33615D02*
D03*
Y32985D02*
D03*
X27858Y33515D02*
D03*
Y32885D02*
D03*
D25*
X35598Y32930D02*
D03*
X35402D02*
D03*
X35500Y33100D02*
D03*
X35598Y33270D02*
D03*
X35402D02*
D03*
D26*
X34473Y34050D02*
D03*
X34827D02*
D03*
X37027Y34000D02*
D03*
X36673D02*
D03*
X36673Y32800D02*
D03*
X37027D02*
D03*
X30227Y32900D02*
D03*
X29873D02*
D03*
D27*
X37076Y33203D02*
D03*
Y33400D02*
D03*
Y33597D02*
D03*
X36624Y33203D02*
D03*
Y33400D02*
D03*
Y33597D02*
D03*
D28*
X38651Y33016D02*
D03*
Y33272D02*
D03*
Y33528D02*
D03*
Y33784D02*
D03*
X37549Y33016D02*
D03*
Y33272D02*
D03*
Y33528D02*
D03*
Y33784D02*
D03*
D29*
X28549Y34494D02*
D03*
Y34336D02*
D03*
Y34179D02*
D03*
Y34021D02*
D03*
Y33864D02*
D03*
Y33706D02*
D03*
X29268D02*
D03*
Y33864D02*
D03*
Y34021D02*
D03*
Y34179D02*
D03*
Y34336D02*
D03*
Y34494D02*
D03*
D30*
X28751Y33583D02*
D03*
X28908D02*
D03*
X29066D02*
D03*
Y34617D02*
D03*
X28908D02*
D03*
X28751D02*
D03*
D31*
X28800Y34257D02*
D03*
Y34100D02*
D03*
Y33943D02*
D03*
X29017D02*
D03*
Y34100D02*
D03*
Y34257D02*
D03*
D32*
X28065Y34566D02*
D03*
X27652D02*
D03*
X28065Y34034D02*
D03*
X27652D02*
D03*
D33*
X29755Y33381D02*
D03*
X29952D02*
D03*
X30148D02*
D03*
X30345D02*
D03*
X29755Y34519D02*
D03*
X29952D02*
D03*
X30148D02*
D03*
X30345D02*
D03*
D34*
X30050Y33950D02*
D03*
D35*
X34800Y34757D02*
D03*
Y34443D02*
D03*
D36*
X28685Y35005D02*
X28865Y35185D01*
X28685Y34683D02*
Y35005D01*
Y34683D02*
X28751Y34617D01*
X29066D02*
X29135Y34686D01*
X28900Y34625D02*
Y34850D01*
Y34625D02*
X28908Y34617D01*
X36898Y34602D02*
X37357D01*
X32150Y33373D02*
X32250Y33473D01*
X32150Y33100D02*
Y33373D01*
X32650Y33100D02*
X32894D01*
X32906Y33113D01*
X31565Y34233D02*
X31575Y34223D01*
X29268Y34494D02*
Y34818D01*
X26539Y35015D02*
X26700Y34854D01*
Y34556D02*
Y34854D01*
X26361Y35015D02*
X26539D01*
X25900Y34554D02*
X26361Y35015D01*
X25900Y34021D02*
Y34554D01*
Y34021D02*
X26150Y33771D01*
Y33501D02*
Y33771D01*
X25887Y33238D02*
X26150Y33501D01*
X31575Y34223D02*
X31800D01*
X31350D02*
X31575D01*
X24600Y33150D02*
X24716D01*
X25043Y33476D01*
X29066Y33316D02*
Y33583D01*
X33694Y34187D02*
X34385D01*
X34473Y34100D01*
X26444Y34497D02*
X26450Y34503D01*
Y34800D01*
X29465Y34021D02*
X29550Y33936D01*
X27200Y33577D02*
X27796D01*
X27858Y33515D01*
X24804Y33730D02*
X25050Y33976D01*
X25096D01*
X24515Y33465D02*
X24550Y33500D01*
X26150Y34100D02*
X26153Y34103D01*
X26444D01*
X26150Y34450D02*
X26300Y34300D01*
X26444D01*
X24263Y33465D02*
X24515D01*
X24263Y34154D02*
X24504D01*
X24550Y34200D01*
X24214Y34793D02*
X24263Y34843D01*
X23910Y34793D02*
X24214D01*
Y33415D02*
X24263Y33465D01*
X23910Y33415D02*
X24214D01*
Y34104D02*
X24263Y34154D01*
X23910Y34104D02*
X24214D01*
X22935Y33465D02*
X23377D01*
X22865Y33535D02*
X22935Y33465D01*
X22865Y33535D02*
Y33632D01*
X22946Y34154D02*
X23377D01*
X22865Y34235D02*
X22946Y34154D01*
X22865Y34235D02*
Y34321D01*
X22511D02*
Y34360D01*
X22994Y34843D01*
X23377D01*
Y33110D02*
X23426Y33159D01*
X23820D01*
X23377Y33799D02*
X23426Y33848D01*
X23820D01*
X23377Y34488D02*
X23426Y34537D01*
X23820D01*
X25641Y33976D02*
X25887Y33730D01*
X25596Y33976D02*
X25641D01*
X25649Y33476D02*
X25887Y33238D01*
X25596Y33476D02*
X25649D01*
X25043D02*
X25096D01*
X26906Y34497D02*
X27247D01*
X27100Y34300D02*
X27250Y34150D01*
X26906Y34300D02*
X27100D01*
X37027Y32800D02*
X37314Y33087D01*
X36673Y32800D02*
X36677D01*
X37027Y34000D02*
X37076Y33951D01*
Y33597D02*
Y33951D01*
X37027Y34000D02*
X38200D01*
X38416Y33784D01*
X38651D01*
X36150Y33673D02*
X36423Y33400D01*
X36624D01*
X35250Y34777D02*
X35468Y34995D01*
X36002Y34798D02*
X36243D01*
X35950Y34850D02*
X36002Y34798D01*
X35950Y34850D02*
Y34995D01*
X35468D02*
X35950D01*
X36243D01*
X35700Y34423D02*
X35718Y34405D01*
X36002Y34602D02*
X36243D01*
X35950Y34550D02*
X36002Y34602D01*
X35950Y34405D02*
Y34550D01*
X37682Y34995D02*
X37900Y34777D01*
X37357Y34995D02*
X37682D01*
X41852Y34150D02*
X41952Y34250D01*
X36243Y34405D02*
X36345D01*
X35700Y33673D02*
X36150D01*
Y33277D02*
X36224Y33203D01*
X36624D01*
X28549Y34336D02*
X28721D01*
X28800Y34100D02*
Y34257D01*
Y33943D02*
Y34100D01*
X29017D01*
X28751Y34307D02*
Y34617D01*
X28721Y34336D02*
X28751Y34307D01*
X28800Y34257D01*
X30148Y34382D02*
Y34519D01*
X30038Y34271D02*
X30148Y34382D01*
X29268Y34021D02*
X29465D01*
X30148Y33381D02*
Y33548D01*
X30230Y33630D01*
X30345Y33381D02*
X30619D01*
X28065Y34034D02*
X28078Y34021D01*
X28549D01*
X27652Y34514D02*
Y34566D01*
Y34514D02*
X27866Y34300D01*
X28250D01*
X28371Y34179D01*
X28549D01*
X27858Y33515D02*
X28065D01*
X28414Y33864D01*
X28549D01*
X37027Y32800D02*
X37800D01*
X38272Y33272D01*
X38651D01*
X32616Y33847D02*
X32763D01*
X32250Y33473D02*
Y33481D01*
X32763Y33453D02*
X33837D01*
X32250Y33481D02*
X32616Y33847D01*
X32763Y33650D02*
X33200D01*
X31350Y33827D02*
X31800D01*
X32250D01*
X31800Y34223D02*
X32250D01*
X31800Y33827D02*
Y34223D01*
X30345Y34405D02*
Y34519D01*
Y34405D02*
X30428Y34322D01*
X30850D01*
X29755Y34519D02*
Y34762D01*
X29952Y34519D02*
Y34765D01*
X29261Y35115D02*
X29439D01*
X29654Y34900D01*
X29135Y34686D02*
Y34989D01*
X29261Y35115D01*
X29268Y34818D02*
X29350Y34900D01*
X29268Y34179D02*
X29438D01*
X29462Y34155D01*
X29615D01*
X29619Y34151D01*
X30399D01*
X29952Y33602D02*
X30100Y33750D01*
X29952Y33381D02*
Y33602D01*
X29268Y33864D02*
X29317D01*
X29450Y33731D01*
X29511Y34275D02*
X29665D01*
X29668Y34271D01*
X30038D01*
X29268Y34336D02*
X29450D01*
X29511Y34275D01*
X28751Y33305D02*
Y33583D01*
X28950Y33200D02*
X29066Y33316D01*
X29268Y33422D02*
X29300Y33390D01*
X29268Y33422D02*
Y33706D01*
X30850Y33990D02*
Y34322D01*
X28620Y33174D02*
Y33200D01*
Y33174D02*
X28751Y33305D01*
X27858Y32885D02*
X27985D01*
X28549Y33449D01*
Y33706D01*
X24393Y34843D02*
X24490Y34940D01*
X24263Y34843D02*
X24393D01*
X27474Y34034D02*
X27652D01*
X27220Y33780D02*
X27474Y34034D01*
X26700Y33780D02*
X27220D01*
X26700D02*
Y34044D01*
X34800Y34757D02*
X35230D01*
X35250Y34777D01*
X32273Y34600D02*
X32323Y34550D01*
X32600D01*
X32888D01*
X33055Y34382D01*
Y34235D02*
X33100Y34191D01*
X33055Y34235D02*
Y34382D01*
X30619Y33381D02*
X30650Y33350D01*
X30100Y33750D02*
X30396D01*
X30760Y33900D02*
X30850Y33990D01*
X30700Y33900D02*
X30760D01*
X30399Y34151D02*
X30455Y34095D01*
X30396Y33750D02*
X30455Y33809D01*
Y34095D01*
X30230Y33630D02*
X30880D01*
X30960Y33550D01*
X31050Y33330D02*
Y33550D01*
X30960D02*
X31050D01*
Y33573D01*
X31327Y33850D01*
X31350Y33827D01*
X31065Y34049D02*
X31068Y34052D01*
Y34559D01*
X30940Y34577D02*
X31350D01*
X31565Y34233D02*
Y34686D01*
X29654Y34900D02*
X31524D01*
X31739Y35115D01*
X31989D01*
X32104Y35000D01*
X33350D01*
X37076Y33400D02*
X37250D01*
X37314Y33336D01*
Y33087D02*
Y33336D01*
X37549Y33528D02*
Y33784D01*
Y33272D02*
Y33528D01*
Y33016D02*
Y33272D01*
X30760Y34578D02*
Y34745D01*
X29755Y34762D02*
X29759Y34766D01*
X31485D01*
X31565Y34686D01*
X29450Y33550D02*
Y33731D01*
Y33550D02*
X29619Y33381D01*
X29755D01*
X30227Y32900D02*
X30620D01*
X31050Y33330D01*
X29755Y33018D02*
X29873Y32900D01*
X29755Y33018D02*
Y33381D01*
X29848Y32875D02*
X29873Y32850D01*
D37*
X28500Y34543D02*
Y35296D01*
Y34543D02*
X28549Y34494D01*
D38*
X35250Y34777D02*
Y35050D01*
X22511Y33439D02*
Y33632D01*
Y33439D02*
X22650Y33300D01*
X33863Y33137D02*
Y33453D01*
X34153D01*
X33837D02*
X33863D01*
Y33137D02*
X34000Y33000D01*
X34315Y33615D02*
X34550D01*
X34153Y33453D02*
X34315Y33615D01*
X35718Y34405D02*
X35950D01*
X36243D01*
X35700Y34027D02*
Y34423D01*
X37300Y34150D02*
X41852D01*
X37204Y34246D02*
X37300Y34150D01*
X36345Y34405D02*
X36414Y34336D01*
Y34334D02*
Y34336D01*
Y34334D02*
X36502Y34246D01*
X37204D01*
X35346Y33673D02*
X35700Y34027D01*
X35250Y33550D02*
Y33673D01*
X35598Y33270D02*
X35630D01*
X35598D02*
Y33352D01*
Y32930D02*
X35700Y33031D01*
Y33200D01*
X35630Y33270D02*
X35700Y33200D01*
X35250Y33550D02*
X35350Y33450D01*
X35500D01*
X35598Y33352D01*
X34550Y33615D02*
X34735D01*
X35080Y33270D01*
X35402D01*
X34550Y32985D02*
X34985D01*
X35100Y33100D01*
X35500D01*
X34473Y33692D02*
Y34100D01*
X36673Y33646D02*
Y34000D01*
X36150Y34027D02*
X36177Y34000D01*
X36673D01*
X38350Y33000D02*
X38635D01*
D39*
X38651Y33528D02*
X38673Y33550D01*
X39200D01*
D40*
X28300Y35450D02*
D03*
D41*
X25746Y34976D02*
D03*
X24946D02*
D03*
X25346Y32976D02*
D03*
D42*
X28865Y35185D02*
D03*
X28900Y34850D02*
D03*
X38325Y34475D02*
D03*
X35250Y35050D02*
D03*
X39200Y33550D02*
D03*
Y34650D02*
D03*
X45950Y34000D02*
D03*
Y33250D02*
D03*
Y34750D02*
D03*
X22650Y34850D02*
D03*
X27200Y32900D02*
D03*
X26700D02*
D03*
X26300Y33250D02*
D03*
X27950Y34950D02*
D03*
X27700Y35200D02*
D03*
X34450Y35000D02*
D03*
Y34500D02*
D03*
X33950D02*
D03*
X27200Y35200D02*
D03*
X31150Y32900D02*
D03*
X32650Y33100D02*
D03*
X32150D02*
D03*
X22650Y33300D02*
D03*
X24600Y33150D02*
D03*
X34000Y33000D02*
D03*
X26450Y34800D02*
D03*
X29550Y33936D02*
D03*
X24804Y33730D02*
D03*
X24550Y33500D02*
D03*
X26150Y34100D02*
D03*
Y34450D02*
D03*
X24550Y34200D02*
D03*
X25887Y33730D02*
D03*
Y33238D02*
D03*
X33250Y33700D02*
D03*
X27250Y34500D02*
D03*
Y34150D02*
D03*
X36400Y33950D02*
D03*
X38350Y33000D02*
D03*
X31800Y33100D02*
D03*
X29350Y34900D02*
D03*
X29500Y34550D02*
D03*
X28950Y33200D02*
D03*
X29300Y33390D02*
D03*
X29310Y32960D02*
D03*
X28440Y32900D02*
D03*
X28620Y33200D02*
D03*
X26700Y33240D02*
D03*
X23810Y32790D02*
D03*
X22960Y32920D02*
D03*
X23750Y35140D02*
D03*
X24490Y34940D02*
D03*
X32600Y34550D02*
D03*
Y34150D02*
D03*
X33350Y35000D02*
D03*
X30650Y33350D02*
D03*
X30700Y33900D02*
D03*
X31050Y33550D02*
D03*
X31065Y34049D02*
D03*
X30200Y35200D02*
D03*
X31900Y34900D02*
D03*
X37900Y33250D02*
D03*
X31000Y35200D02*
D03*
M02*
