M48
;Layer_Color=9147313
;FILE_FORMAT=2:4
INCH,TZ
;TYPE=PLATED
T1F00S00C0.0130
T2F00S00C0.0402
;TYPE=NON_PLATED
T3F00S00C0.0390
%
T01
X22960Y32920
X22650Y33300
Y34850
X23750Y35140
X24490Y34940
X24550Y34200
Y33500
X24600Y33150
X24804Y33730
X25887
Y33238
X26300Y33250
X26700Y33240
Y32900
X27200
X28440
X28620Y33200
X28950
X29300Y33390
X29310Y32960
X29550Y33936
X29500Y34550
X29350Y34900
X28900Y34850
X28865Y35185
X27950Y34950
X27700Y35200
X27200
X27250Y34500
Y34150
X26150Y34100
Y34450
X26450Y34800
X30200Y35200
X31000
X31065Y34049
X30700Y33900
X30650Y33350
X31050Y33550
X31150Y32900
X23810Y32790
X31800Y33100
X32150
X32650
X32600Y34150
Y34550
X31900Y34900
X33350Y35000
X34450
Y34500
X33950
X33250Y33700
X34000Y33000
X35250Y35050
X36400Y33950
X37900Y33250
X38350Y33000
X39200Y33550
Y34650
X38325Y34475
X45950Y34750
Y34000
Y33250
T02
X28300Y35450
T03
X25346Y32976
X25746Y34976
X24946
M30
