G04*
G04 #@! TF.GenerationSoftware,Altium Limited,CircuitStudio,1.5.2 (30)*
G04*
G04 Layer_Color=16777215*
%FSLAX24Y24*%
%MOIN*%
G70*
G01*
G75*
%ADD38C,0.0100*%
%ADD44C,0.0039*%
%ADD45C,0.0059*%
%ADD46C,0.0069*%
%ADD47C,0.0079*%
%ADD48C,0.0050*%
D38*
X40294Y35501D02*
G03*
X40294Y32452I1931J-1525D01*
G01*
X44157D02*
G03*
X44157Y35501I-1931J1525D01*
G01*
X40848Y35162D02*
X41248D01*
X41048Y35362D02*
Y34962D01*
D44*
X24119Y33488D02*
G03*
X24119Y33488I-20J0D01*
G01*
Y34177D02*
G03*
X24119Y34177I-20J0D01*
G01*
Y34866D02*
G03*
X24119Y34866I-20J0D01*
G01*
X36012Y35128D02*
G03*
X36012Y35128I-20J0D01*
G01*
X35768Y32787D02*
G03*
X35768Y32787I-20J0D01*
G01*
X37332Y33036D02*
G03*
X37332Y33036I-20J0D01*
G01*
X38801Y32758D02*
G03*
X38801Y32758I-20J0D01*
G01*
X28387Y34691D02*
G03*
X28387Y34691I-20J0D01*
G01*
X29597Y33182D02*
G03*
X29597Y33182I-20J0D01*
G01*
X31149Y34651D02*
G03*
X31149Y34651I-20J0D01*
G01*
D45*
X26280Y34650D02*
G03*
X26280Y34650I-30J0D01*
G01*
X22368Y33376D02*
G03*
X22368Y33376I-30J0D01*
G01*
D46*
X33730Y34500D02*
G03*
X33730Y34500I-30J0D01*
G01*
D47*
X36545Y33036D02*
X37155D01*
X36545Y33764D02*
X37155D01*
X38624Y32758D02*
Y32790D01*
Y34010D02*
Y34042D01*
X37576Y32758D02*
Y32790D01*
Y34010D02*
Y34042D01*
Y32758D02*
X38624D01*
X37576Y34042D02*
X38624D01*
X29578Y33340D02*
Y33499D01*
Y34401D02*
Y34560D01*
X30522Y33340D02*
Y33499D01*
Y34401D02*
Y34560D01*
D48*
X28475Y34691D02*
X28592D01*
X29225Y33509D02*
X29341D01*
X28475D02*
X28592D01*
X29225Y34691D02*
X29341D01*
M02*
