G04*
G04 #@! TF.GenerationSoftware,Altium Limited,CircuitStudio,1.5.2 (30)*
G04*
G04 Layer_Color=7318015*
%FSLAX24Y24*%
%MOIN*%
G70*
G01*
G75*
%ADD14R,0.0217X0.0177*%
%ADD15R,0.0118X0.0157*%
%ADD16R,0.0256X0.0157*%
%ADD17R,0.0087X0.0197*%
%ADD18R,0.0197X0.0087*%
%ADD19R,0.0197X0.0335*%
%ADD20R,0.0315X0.0118*%
%ADD21R,0.0118X0.0315*%
%ADD22R,0.0335X0.0098*%
%ADD23R,0.0551X0.0642*%
%ADD24R,0.0709X0.0315*%
%ADD25C,0.0110*%
%ADD26R,0.0177X0.0217*%
%ADD27R,0.0295X0.0110*%
%ADD28R,0.0236X0.0157*%
%ADD29R,0.0089X0.0071*%
%ADD30R,0.0071X0.0089*%
%ADD31R,0.0138X0.0079*%
%ADD32R,0.0295X0.0335*%
%ADD33R,0.0098X0.0315*%
%ADD34R,0.0630X0.0079*%
%ADD35R,0.0276X0.0197*%
D14*
X23377Y33110D02*
D03*
Y33465D02*
D03*
Y33799D02*
D03*
Y34154D02*
D03*
Y34488D02*
D03*
Y34843D02*
D03*
X24263Y33110D02*
D03*
Y33465D02*
D03*
Y33799D02*
D03*
Y34154D02*
D03*
Y34488D02*
D03*
Y34843D02*
D03*
X31800Y34223D02*
D03*
Y34577D02*
D03*
Y33827D02*
D03*
Y33473D02*
D03*
X35700Y34423D02*
D03*
Y34777D02*
D03*
X35250Y34777D02*
D03*
Y34423D02*
D03*
X37900Y34423D02*
D03*
Y34777D02*
D03*
X35250Y33673D02*
D03*
Y34027D02*
D03*
X35700Y33673D02*
D03*
Y34027D02*
D03*
X36150Y33277D02*
D03*
Y32923D02*
D03*
Y33673D02*
D03*
Y34027D02*
D03*
X31350Y34223D02*
D03*
Y34577D02*
D03*
X27200Y33577D02*
D03*
Y33223D02*
D03*
X31350Y33827D02*
D03*
Y33473D02*
D03*
X32250Y33827D02*
D03*
Y33473D02*
D03*
Y34223D02*
D03*
Y34577D02*
D03*
D15*
X23910Y33415D02*
D03*
X23731D02*
D03*
X23910Y34104D02*
D03*
X23731D02*
D03*
X23910Y34793D02*
D03*
X23731D02*
D03*
X30760Y34578D02*
D03*
X30940D02*
D03*
D16*
X23820Y33159D02*
D03*
Y33848D02*
D03*
Y34537D02*
D03*
X30850Y34322D02*
D03*
D17*
X26700Y34556D02*
D03*
Y34044D02*
D03*
D18*
X26444Y34300D02*
D03*
Y34497D02*
D03*
X26956Y34103D02*
D03*
Y34300D02*
D03*
Y34497D02*
D03*
X26444Y34103D02*
D03*
D19*
X22511Y33632D02*
D03*
X22865Y34321D02*
D03*
Y33632D02*
D03*
X22511Y34321D02*
D03*
D20*
X32763Y33847D02*
D03*
Y33650D02*
D03*
Y33453D02*
D03*
X33837D02*
D03*
Y33650D02*
D03*
Y33847D02*
D03*
D21*
X32906Y33113D02*
D03*
X33103D02*
D03*
X33300D02*
D03*
X33497D02*
D03*
X33694D02*
D03*
Y34187D02*
D03*
X33497D02*
D03*
X33300D02*
D03*
X33103D02*
D03*
X32906D02*
D03*
D22*
X36243Y34995D02*
D03*
Y34798D02*
D03*
Y34602D02*
D03*
Y34405D02*
D03*
X37357Y34995D02*
D03*
Y34798D02*
D03*
Y34602D02*
D03*
Y34405D02*
D03*
D23*
X36800Y34700D02*
D03*
D24*
X34550Y33615D02*
D03*
Y32985D02*
D03*
X27858Y33515D02*
D03*
Y32885D02*
D03*
D25*
X35598Y32930D02*
D03*
X35402D02*
D03*
X35500Y33100D02*
D03*
X35598Y33270D02*
D03*
X35402D02*
D03*
D26*
X34473Y34050D02*
D03*
X34827D02*
D03*
X37027Y34000D02*
D03*
X36673D02*
D03*
X36673Y32800D02*
D03*
X37027D02*
D03*
X30227Y32900D02*
D03*
X29873D02*
D03*
D27*
X37076Y33203D02*
D03*
Y33400D02*
D03*
Y33597D02*
D03*
X36624Y33203D02*
D03*
Y33400D02*
D03*
Y33597D02*
D03*
D28*
X38651Y33016D02*
D03*
Y33272D02*
D03*
Y33528D02*
D03*
Y33784D02*
D03*
X37549Y33016D02*
D03*
Y33272D02*
D03*
Y33528D02*
D03*
Y33784D02*
D03*
D29*
X28549Y34494D02*
D03*
Y34336D02*
D03*
Y34179D02*
D03*
Y34021D02*
D03*
Y33864D02*
D03*
Y33706D02*
D03*
X29268D02*
D03*
Y33864D02*
D03*
Y34021D02*
D03*
Y34179D02*
D03*
Y34336D02*
D03*
Y34494D02*
D03*
D30*
X28751Y33583D02*
D03*
X28908D02*
D03*
X29066D02*
D03*
Y34617D02*
D03*
X28908D02*
D03*
X28751D02*
D03*
D31*
X28800Y34257D02*
D03*
Y34100D02*
D03*
Y33943D02*
D03*
X29017D02*
D03*
Y34100D02*
D03*
Y34257D02*
D03*
D32*
X28065Y34566D02*
D03*
X27652D02*
D03*
X28065Y34034D02*
D03*
X27652D02*
D03*
D33*
X29755Y33381D02*
D03*
X29952D02*
D03*
X30148D02*
D03*
X30345D02*
D03*
X29755Y34519D02*
D03*
X29952D02*
D03*
X30148D02*
D03*
X30345D02*
D03*
D34*
X30050Y33950D02*
D03*
D35*
X34800Y34757D02*
D03*
Y34443D02*
D03*
M02*
